<svg width="40" height="40" viewBox="0 0 40 40" fill="none" xmlns="http://www.w3.org/2000/svg">
<path d="M19.9834 2.5874C21.0048 2.5874 22.0044 2.73574 22.7578 3.01709V3.01807L31.0752 6.13525H31.0762C33.2957 6.96202 35.0508 9.50761 35.0508 11.8667V24.2495C35.0508 25.3367 34.7066 26.5895 34.124 27.7485C33.578 28.8348 32.8406 29.8024 32.0312 30.4556L31.8682 30.5825L24.7012 35.9321L24.6953 35.937C23.4126 36.9261 21.724 37.4331 20 37.4331C18.2773 37.433 16.5849 36.9263 15.2646 35.9478H15.2637L8.09961 30.5991C7.2269 29.9484 6.42556 28.9208 5.84277 27.7593C5.25993 26.5976 4.91699 25.3447 4.91699 24.2661V11.8667C4.91699 9.58124 6.56367 7.12039 8.68457 6.21729L8.8916 6.13525H8.89258L17.209 3.01807C17.9624 2.73655 18.9618 2.58743 19.9834 2.5874ZM20.001 4.08545C19.3021 4.08736 18.5817 4.17016 17.9883 4.34912L17.7422 4.43115L17.7412 4.43213L9.4248 7.54834H9.42383C8.59633 7.85993 7.85509 8.52245 7.32422 9.29053C6.79314 10.0589 6.43359 10.9898 6.43359 11.8833V24.2661C6.43359 25.1606 6.74417 26.1893 7.20117 27.1011C7.60088 27.8986 8.13749 28.6561 8.73926 29.187L9.00098 29.4009L16.168 34.7505C17.2298 35.5444 18.6284 35.9252 20.002 35.9253C21.2901 35.9253 22.6032 35.5902 23.6436 34.895L23.8477 34.7515L23.8496 34.7505L31.0156 29.4009L31.0166 29.3999C31.7314 28.8638 32.3669 28.0049 32.8223 27.0942C33.2776 26.1836 33.584 25.1596 33.584 24.2661V11.8667C33.584 10.9807 33.2236 10.0539 32.6934 9.28662C32.1961 8.56719 31.5145 7.93786 30.752 7.59814L30.5977 7.53369L30.5928 7.53174L22.2754 4.41455L22.2666 4.41162L22.0186 4.33252C21.4217 4.16197 20.7003 4.08354 20.001 4.08545Z" fill="#FAFAFA" stroke="#FAFAFA"/>
<path d="M24.4043 14.77C24.6743 14.5003 25.1158 14.4832 25.4072 14.7192L25.4639 14.77C25.734 15.0402 25.7503 15.4824 25.5137 15.7739L25.4639 15.8296L18.2969 22.9966C18.1456 23.1478 17.9578 23.2163 17.7666 23.2163C17.5995 23.2162 17.4356 23.1637 17.2959 23.0493L17.2373 22.9966L14.5537 20.313C14.2839 20.043 14.267 19.6015 14.5029 19.3101L14.5537 19.2534C14.8238 18.9833 15.2661 18.9663 15.5576 19.2026L15.6133 19.2534L17.7666 21.4067L18.1211 21.0532L24.4043 14.77Z" fill="#FAFAFA" stroke="#FAFAFA"/>
</svg>
